<?xml version="1.0" encoding="UTF-8"?>
<svg width="56px" height="57px" viewBox="0 0 56 57" version="1.1" xmlns="http://www.w3.org/2000/svg" xmlns:xlink="http://www.w3.org/1999/xlink">
    <!-- Generator: sketchtool 58 (101010) - https://sketch.com -->
    <title>5FBD500C-6F82-4B8B-98D8-201E904C8701@2.00x</title>
    <desc>Created with sketchtool.</desc>
    <g id="Sentiment-Dashboard" stroke="none" stroke-width="1" fill="none" fill-rule="evenodd">
        <g id="Sentiment-Report---Positive" transform="translate(-39.000000, -31.000000)">
            <g id="Group-11" transform="translate(39.000000, 31.000000)">
                <path d="M24.989357,1.94634061 C23.5531917,0.55609898 21.8297817,0 19.8191504,0 C17.2340413,0 14.9361652,1.11219796 13.5,3.05853857 C13.5,3.05853857 13.5,3.05853857 13.5,3.05853857 C9.4787233,3.05853857 6.31914926,6.11707714 6.31914926,10.0097584 C6.31914926,10.287802 6.31914926,10.287802 6.31914926,10.5658573 C4.0212767,11.4 2.29787257,13.9024396 2.29787257,16.4048792 C2.29787257,17.2390218 2.58510678,17.7951208 2.872341,18.6292635 C0.861702183,20.2975604 0,22.5219563 0,24.7463406 C0,25.0243959 0,25.0243959 0,25.0243959 C0,25.0243959 0,25.0243959 0,25.0243959 C0,25.3024396 0,25.3024396 0,25.3024396 C0,25.3024396 0,25.3024396 0,25.3024396 C0,26.1365822 0.2872341,26.9707365 0.574468083,27.5268355 C0.574468083,27.8048792 0.574468083,27.8048792 0.574468083,27.8048792 C0.861702183,28.3609782 0.861702183,28.6390218 1.14893617,29.1951208 C0.2872341,30.3073188 0,31.6975604 0,33.3658573 C0,35.0341427 0.574468083,36.7024396 2.01063835,38.0926812 C1.43616991,38.9268355 1.43616991,39.7609782 1.43616991,40.8731761 C1.43616991,43.6536594 3.15957404,46.4341485 6.03191504,47.5463429 C6.03191504,48.3804914 6.31914926,48.9365857 6.6063823,49.4926859 C6.6063823,49.7707307 6.6063823,49.7707307 6.6063823,49.7707307 C7.75531917,52.2731703 10.340426,53.9414661 13.212767,53.9414661 C13.787233,53.9414661 14.6489322,53.9414661 15.22341,53.9414661 C16.6595752,55.8878059 18.6702183,57 21.2553157,57 C22.9787257,57 24.1276578,56.4439004 25.27659,55.3317054 C26.712767,54.2195109 27,52.551221 27,50.8829252 C27,7.50731878 27,7.50731878 27,7.50731878 C27,5.28292286 26.4255339,3.33658224 24.989357,1.94634061 Z M20.1063835,13.3463406 C20.1063835,14.1804833 20.6808496,14.7365822 21.5425487,14.7365822 C24.7021239,14.7365822 24.7021239,14.7365822 24.7021239,14.7365822 C24.7021239,28.6390218 24.7021239,28.6390218 24.7021239,28.6390218 C24.7021239,28.6390218 15.7978726,28.6390218 13.5,28.6390218 C11.4893617,28.6390218 9.4787233,26.9707365 9.4787233,24.7463406 C9.4787233,23.912198 8.90425604,23.356099 8.32978761,23.356099 C7.46808496,23.356099 7.18085074,23.912198 7.18085074,24.7463406 C7.18085074,28.0829229 10.0531917,31.1414614 13.212767,31.1414614 C16.6595752,31.1414614 24.7021239,31.4195167 24.7021239,31.4195167 C24.7021239,38.0926812 24.7021239,38.0926812 24.7021239,38.0926812 C24.7021239,38.0926812 21.5425487,38.0926812 17.8085074,38.0926812 C14.0744661,38.0926812 11.2021274,40.8731761 11.2021274,44.487802 C11.2021274,45.043901 11.7766017,45.6000012 12.6383009,45.6000012 C13.212767,45.6000012 13.787233,45.043901 13.787233,44.487802 C13.787233,42.2634178 15.510643,40.5951208 17.8085074,40.5951208 C20.1063835,40.5951208 24.7021239,40.5951208 24.7021239,40.5951208 C24.7021239,50.8829252 24.7021239,50.8829252 24.7021239,50.8829252 C24.7021239,53.1073153 22.9787257,54.7756111 21.2553157,54.7756111 C19.5319174,54.7756111 18.3829735,53.9414661 17.2340413,52.8292704 C19.2446843,51.4390253 20.6808496,49.2146364 20.6808496,46.9902463 C20.6808496,45.8780507 20.3936165,45.043901 20.1063835,44.2097584 C19.8191504,43.6536594 18.9574513,43.3756157 18.3829735,43.6536594 C18.0957404,43.6536594 17.8085074,43.9317031 17.8085074,44.2097584 C17.5212743,44.487802 17.5212743,44.7658573 17.8085074,45.043901 C18.0957404,45.6000012 18.0957404,46.4341485 18.0957404,46.9902463 C18.0957404,48.6585351 16.9468083,50.3268309 15.510643,51.1609758 C15.22341,51.1609758 15.22341,51.1609758 15.22341,51.1609758 C14.6489322,51.4390253 14.0744661,51.4390253 13.212767,51.4390253 C10.6276602,51.4390253 8.61702183,49.4926859 8.61702183,46.9902463 C8.61702183,46.7121956 8.61702183,46.7121956 8.61702183,46.7121956 C8.61702183,46.1560978 8.04255339,45.6000012 7.46808496,45.6000012 C5.45744661,45.043901 3.73404248,42.8195167 3.73404248,40.8731761 C3.73404248,40.0390218 4.0212767,39.2048792 4.59574513,38.3707365 C4.88297935,37.8146376 4.59574513,37.2585386 4.30851091,36.7024396 C3.15957404,35.8682969 2.29787257,34.756099 2.29787257,33.3658573 C2.29787257,31.9756157 2.872341,30.8634178 3.73404248,30.0292635 C4.30851091,29.4731761 4.30851091,28.9170771 3.73404248,28.3609782 C2.872341,27.5268355 2.29787257,26.1365822 2.29787257,24.7463406 C2.29787257,21.687802 4.88297935,19.1853624 8.04255339,19.1853624 C11.2021274,19.1853624 13.787233,21.687802 13.787233,24.4682969 C14.0744661,25.3024396 14.6489322,25.5804833 15.22341,25.5804833 C15.510643,25.5804833 15.7978726,25.5804833 16.0851091,25.3024396 C16.3723422,25.0243959 16.3723422,24.7463406 16.3723422,24.4682969 C16.0851091,20.0195167 12.6383009,16.9609782 8.04255339,16.9609782 C7.18085074,16.9609782 6.03191504,16.9609782 5.17021239,17.5170771 C4.88297935,16.9609782 4.88297935,16.6829229 4.88297935,16.4048792 C4.88297935,14.4585386 6.03191504,13.0682969 8.04255339,12.512198 C8.61702183,12.2341427 8.90425604,11.6780437 8.90425604,11.1219563 C8.90425604,10.843901 8.61702183,10.5658573 8.61702183,10.0097584 C8.61702183,10.0097584 8.90425604,9.73170306 8.90425604,9.45365939 C8.90425604,9.45365939 8.90425604,9.45365939 8.90425604,9.45365939 C9.19148909,7.22926347 11.2021274,5.56097816 13.5,5.56097816 C15.22341,5.56097816 16.9468083,6.39512082 17.8085074,8.06341776 C18.0957404,8.61951673 18.9574513,8.89756041 19.5319174,8.61951673 C20.1063835,8.34146143 20.3936165,7.50731878 20.1063835,6.9512198 C19.2446843,5.56097816 17.8085074,4.17073653 16.3723422,3.61463755 C17.2340413,2.78048327 18.3829735,2.22439592 19.8191504,2.22439592 C22.6914926,2.22439592 24.7021239,4.4487802 24.7021239,7.50731878 C24.7021239,12.2341427 24.7021239,12.2341427 24.7021239,12.2341427 C21.5425487,12.2341427 21.5425487,12.2341427 21.5425487,12.2341427 C20.6808496,12.2341427 20.1063835,12.7902416 20.1063835,13.3463406 Z" id="Fill-1" fill="#00BCEB"></path>
                <path d="M18,17.29032 C18,17.8064571 18.6,18.3225829 19.2,18.3225829 C20.4,18.3225829 21.3,19.0967771 21.3,20.1290286 C21.3,20.9032229 20.4,21.6774171 19.2,21.6774171 C18.6,21.6774171 18,22.1935429 18,22.9677371 C18,23.4838743 18.6,24 19.2,24 C21.9,24 24,22.1935429 24,20.1290286 C24,17.8064571 21.9,16 19.2,16 C18.6,16 18,16.5161257 18,17.29032 Z" id="Fill-2" fill="#00BCEB"></path>
                <path d="M18,12.857144 C18,12 17.4,11.428568 16.8,11.428568 C15.6,11.428568 14.4,10.571432 14.4,9.428576 C14.4,8.571428 13.8,8 13.2,8 C12.6,8 12,8.571428 12,9.428576 C12,12 14.1,14 16.8,14 C17.4,14 18,13.428572 18,12.857144 Z" id="Fill-3" fill="#00BCEB"></path>
                <path d="M8.2,40 C8.8,40 9.4,39.428572 9.4,38.571424 C9.4,37.428568 10.6,36.571432 11.8,36.571432 C12.4,36.571432 13,36 13,35.142856 C13,34.571428 12.4,34 11.8,34 C9.1,34 7,36 7,38.571424 C7,39.428572 7.3,40 8.2,40 Z" id="Fill-4" fill="#00BCEB"></path>
                <path d="M16,36 C22,36 22,36 22,36 C22.5,36 23,35.4 23,35 C23,34.4 22.5,34 22,34 C16,34 16,34 16,34 C15.5,34 15,34.4 15,35 C15,35.4 15.5,36 16,36 Z" id="Fill-5" fill="#00BCEB"></path>
                <path d="M29,7.50731878 C29,50.8829252 29,50.8829252 29,50.8829252 C29,52.551221 29.287233,54.2195109 30.4361652,55.3317054 C31.5851091,56.4439004 32.7340413,57 34.4574513,57 C37.0425487,57 39.0531917,55.8878059 40.7766017,53.9414661 C41.3510678,53.9414661 41.9255339,53.9414661 42.5,53.9414661 C45.3723422,53.9414661 47.9574513,52.2731703 49.1063835,49.7707307 C49.3936165,49.4926859 49.3936165,49.4926859 49.3936165,49.4926859 C49.6808496,48.9365857 49.6808496,48.3804914 49.6808496,47.5463429 C52.5531917,46.4341485 54.5638348,43.6536594 54.5638348,40.8731761 C54.5638348,39.7609782 54.27659,38.9268355 53.989357,38.0926812 C55.1383009,36.7024396 56,35.0341427 56,33.3658573 C56,31.6975604 55.4255339,30.3073188 54.5638348,29.1951208 C54.8510678,28.6390218 55.1383009,28.3609782 55.4255339,27.8048792 C55.4255339,27.5268355 55.4255339,27.5268355 55.4255339,27.5268355 C55.712767,26.9707365 55.712767,26.1365822 55.712767,25.3024396 C56,25.3024396 56,25.3024396 56,25.3024396 C56,25.0243959 56,25.0243959 56,25.0243959 C56,25.0243959 56,25.0243959 56,25.0243959 C56,24.7463406 56,24.7463406 56,24.7463406 C56,22.5219563 54.8510678,20.2975604 52.8404248,18.6292635 C53.1276578,17.7951208 53.4148909,17.2390218 53.4148909,16.4048792 C53.4148909,13.9024396 51.9787257,11.4 49.6808496,10.5658573 C49.6808496,10.287802 49.6808496,10.287802 49.6808496,10.0097584 C49.6808496,6.11707714 46.2340413,3.05853857 42.212767,3.05853857 C42.212767,3.05853857 42.212767,3.05853857 42.212767,3.05853857 C40.7766017,1.11219796 38.7659587,0 36.1808496,0 C34.1702183,0 32.1595752,0.55609898 30.72341,1.94634061 C29.287233,3.33658224 29,5.28292286 29,7.50731878 Z M34.4574513,12.2341427 C31.010643,12.2341427 31.010643,12.2341427 31.010643,12.2341427 C31.010643,7.50731878 31.010643,7.50731878 31.010643,7.50731878 C31.010643,4.4487802 33.3085074,2.22439592 36.1808496,2.22439592 C37.3297935,2.22439592 38.4787257,2.78048327 39.3404248,3.61463755 C37.9042596,4.17073653 36.4680826,5.56097816 35.8936165,6.9512198 C35.6063835,7.50731878 35.6063835,8.34146143 36.4680826,8.61951673 C37.0425487,8.89756041 37.6170265,8.61951673 37.9042596,8.06341776 C38.7659587,6.39512082 40.489357,5.56097816 42.212767,5.56097816 C44.7978761,5.56097816 46.8085074,7.22926347 47.0957404,9.45365939 C47.0957404,9.45365939 47.0957404,9.45365939 47.0957404,9.45365939 C47.0957404,9.73170306 47.0957404,10.0097584 47.0957404,10.0097584 C47.0957404,10.5658573 47.0957404,10.843901 46.8085074,11.1219563 C46.8085074,11.6780437 47.0957404,12.2341427 47.9574513,12.512198 C49.6808496,13.0682969 50.8297817,14.4585386 50.8297817,16.4048792 C50.8297817,16.6829229 50.8297817,16.9609782 50.8297817,17.5170771 C49.6808496,16.9609782 48.8191504,16.9609782 47.6702183,16.9609782 C43.3616991,16.9609782 39.6276578,20.0195167 39.3404248,24.4682969 C39.3404248,24.7463406 39.6276578,25.0243959 39.6276578,25.3024396 C39.9148909,25.5804833 40.2021239,25.5804833 40.489357,25.5804833 C41.3510678,25.5804833 41.9255339,25.3024396 41.9255339,24.4682969 C41.9255339,21.687802 44.510643,19.1853624 47.6702183,19.1853624 C50.8297817,19.1853624 53.4148909,21.687802 53.4148909,24.7463406 C53.4148909,26.1365822 52.8404248,27.5268355 51.9787257,28.3609782 C51.6914926,28.9170771 51.6914926,29.4731761 51.9787257,30.0292635 C52.8404248,30.8634178 53.4148909,31.9756157 53.4148909,33.3658573 C53.4148909,34.756099 52.8404248,35.8682969 51.6914926,36.7024396 C51.1170265,37.2585386 51.1170265,37.8146376 51.4042596,38.3707365 C51.6914926,39.2048792 51.9787257,40.0390218 51.9787257,40.8731761 C51.9787257,42.8195167 50.5425487,45.043901 48.2446843,45.6000012 C47.6702183,45.6000012 47.3829735,46.1560978 47.3829735,46.7121956 C47.3829735,46.9902463 47.3829735,46.9902463 47.3829735,46.9902463 C47.3829735,49.4926859 45.0851091,51.4390253 42.5,51.4390253 C41.9255339,51.4390253 41.3510678,51.4390253 40.7766017,51.1609758 C40.489357,51.1609758 40.489357,51.1609758 40.489357,51.1609758 C38.7659587,50.3268309 37.6170265,48.6585351 37.6170265,46.9902463 C37.6170265,46.4341485 37.9042596,45.6000012 38.1914926,45.043901 C38.1914926,44.7658573 38.1914926,44.487802 38.1914926,44.2097584 C37.9042596,43.9317031 37.6170265,43.6536594 37.3297935,43.6536594 C36.7553157,43.3756157 36.1808496,43.6536594 35.8936165,44.2097584 C35.3191504,45.043901 35.3191504,45.8780507 35.3191504,46.9902463 C35.3191504,49.2146364 36.4680826,51.4390253 38.4787257,52.8292704 C37.3297935,53.9414661 36.1808496,54.7756111 34.7446843,54.7756111 C32.7340413,54.7756111 31.010643,53.1073153 31.010643,50.8829252 C31.010643,40.5951208 31.010643,40.5951208 31.010643,40.5951208 C31.010643,40.5951208 35.6063835,40.5951208 37.9042596,40.5951208 C40.2021239,40.5951208 41.9255339,42.2634178 41.9255339,44.487802 C41.9255339,45.043901 42.5,45.6000012 43.3616991,45.6000012 C43.9361652,45.6000012 44.510643,45.043901 44.510643,44.487802 C44.510643,40.8731761 41.6383009,38.0926812 37.9042596,38.0926812 C34.4574513,38.0926812 31.010643,38.0926812 31.010643,38.0926812 C31.010643,31.4195167 31.010643,31.4195167 31.010643,31.4195167 C31.010643,31.4195167 39.0531917,31.1414614 42.5,31.1414614 C45.9468083,31.1414614 48.8191504,28.0829229 48.8191504,24.7463406 C48.8191504,23.912198 48.2446843,23.356099 47.3829735,23.356099 C46.8085074,23.356099 46.2340413,23.912198 46.2340413,24.7463406 C46.2340413,26.9707365 44.510643,28.6390218 42.212767,28.6390218 C39.9148909,28.6390218 31.010643,28.6390218 31.010643,28.6390218 C31.010643,14.7365822 31.010643,14.7365822 31.010643,14.7365822 C34.4574513,14.7365822 34.4574513,14.7365822 34.4574513,14.7365822 C35.0319174,14.7365822 35.6063835,14.1804833 35.6063835,13.3463406 C35.6063835,12.7902416 35.0319174,12.2341427 34.4574513,12.2341427 Z" id="Fill-6" fill="#6EBE4A"></path>
                <path d="M38,17.29032 C38,17.8064571 37.7368375,18.3225829 36.9473625,18.3225829 C35.8947375,18.3225829 35.1052625,19.0967771 35.1052625,20.1290286 C35.1052625,20.9032229 35.8947375,21.6774171 36.9473625,21.6774171 C37.7368375,21.6774171 38,22.1935429 38,22.9677371 C38,23.4838743 37.7368375,24 36.9473625,24 C34.8421,24 33,22.1935429 33,20.1290286 C33,17.8064571 34.8421,16 36.9473625,16 C37.7368375,16 38,16.5161257 38,17.29032 Z" id="Fill-7" fill="#6EBE4A"></path>
                <path d="M38,12.857144 C38,12 38.571428,11.428568 39.428576,11.428568 C40.571432,11.428568 41.428568,10.571432 41.428568,9.428576 C41.428568,8.571428 42,8 42.571424,8 C43.428572,8 44,8.571428 44,9.428576 C44,12 41.714288,14 39.428576,14 C38.571428,14 38,13.428572 38,12.857144 Z" id="Fill-8" fill="#6EBE4A"></path>
                <path d="M47.571424,40 C47,40 46.428568,39.428572 46.428568,38.571424 C46.428568,37.428568 45.571432,36.571432 44.428576,36.571432 C43.571428,36.571432 43,36 43,35.142856 C43,34.571428 43.571428,34 44.428576,34 C47,34 49,36 49,38.571424 C49,39.428572 48.428572,40 47.571424,40 Z" id="Fill-9" fill="#6EBE4A"></path>
                <path d="M39.636365,36 C33.363635,36 33.363635,36 33.363635,36 C32.5454563,36 32,35.4 32,35 C32,34.4 32.5454563,34 33.363635,34 C39.636365,34 39.636365,34 39.636365,34 C40.4545438,34 41,34.4 41,35 C41,35.4 40.4545438,36 39.636365,36 Z" id="Fill-10" fill="#6EBE4A"></path>
            </g>
        </g>
    </g>
</svg>